<svg xmlns="http://www.w3.org/2000/svg" viewBox="0 0 64 64">
  <defs>
    <linearGradient id="g" x1="0" y1="0" x2="1" y2="1">
      <stop offset="0%" stop-color="#16a34a"/>
      <stop offset="100%" stop-color="#22c55e"/>
    </linearGradient>
  </defs>
  <rect width="64" height="64" rx="12" fill="url(#g)"/>
  <g transform="translate(10,10)">
    <path d="M22 36c8-6 12-14 12-20 0-6-4-10-10-10-4 0-8 2-10 6-2-4-6-6-10-6C4 6 0 10 0 16c0 6 4 14 12 20 3 2 5 4 10 4s7-2 10-4z" fill="#fff" opacity="0.9"/>
    <circle cx="22" cy="18" r="5" fill="#166534" opacity="0.4"/>
  </g>
</svg>
